<svg width="138" height="122" viewBox="0 0 138 122" fill="none" xmlns="http://www.w3.org/2000/svg">
<path d="M118.023 20.3289C111.673 13.9198 104.122 8.82521 95.7994 5.33688C87.4772 1.84854 78.5483 0.0349711 69.5239 0H68.9997C50.6999 0 33.1495 7.26504 20.2096 20.1969C7.2696 33.1288 0 50.6681 0 68.9565V106.087C0 110.307 1.6776 114.355 4.66374 117.339C7.64989 120.323 11.7 122 15.923 122H26.5384C30.7614 122 34.8115 120.323 37.7976 117.339C40.7838 114.355 42.4614 110.307 42.4614 106.087V79.5652C42.4614 75.3448 40.7838 71.2973 37.7976 68.313C34.8115 65.3287 30.7614 63.6522 26.5384 63.6522H10.8542C12.1784 49.1554 18.8771 35.6769 29.6352 25.8628C40.3932 16.0487 54.4336 10.608 68.9997 10.6087H69.4443C83.9498 10.6699 97.9094 16.1431 108.587 25.9554C119.265 35.7678 125.89 49.2117 127.165 63.6522H111.461C107.238 63.6522 103.188 65.3287 100.202 68.313C97.2157 71.2973 95.5381 75.3448 95.5381 79.5652V106.087C95.5381 110.307 97.2157 114.355 100.202 117.339C103.188 120.323 107.238 122 111.461 122H122.076C126.3 122 130.35 120.323 133.336 117.339C136.322 114.355 137.999 110.307 137.999 106.087V68.9565C138.034 59.9363 136.287 50.9979 132.859 42.6535C129.431 34.3091 124.39 26.7227 118.023 20.3289ZM26.5384 74.2609C27.946 74.2609 29.2961 74.8197 30.2915 75.8145C31.2868 76.8092 31.846 78.1584 31.846 79.5652V106.087C31.846 107.494 31.2868 108.843 30.2915 109.838C29.2961 110.832 27.946 111.391 26.5384 111.391H15.923C14.5153 111.391 13.1653 110.832 12.1699 109.838C11.1745 108.843 10.6153 107.494 10.6153 106.087V74.2609H26.5384ZM127.384 106.087C127.384 107.494 126.825 108.843 125.83 109.838C124.834 110.832 123.484 111.391 122.076 111.391H111.461C110.053 111.391 108.703 110.832 107.708 109.838C106.713 108.843 106.153 107.494 106.153 106.087V79.5652C106.153 78.1584 106.713 76.8092 107.708 75.8145C108.703 74.8197 110.053 74.2609 111.461 74.2609H127.384V106.087Z" fill="white"/>
</svg>
