<svg width="122" height="122" viewBox="0 0 122 122" fill="none" xmlns="http://www.w3.org/2000/svg">
<path d="M81.3335 0C70.5513 0.0104674 60.2137 4.29832 52.5896 11.9225C44.9654 19.5467 40.6775 29.8843 40.6671 40.6665C40.6712 42.4458 40.7901 44.223 41.0229 45.987L1.7628 99.5312C0.47777 101.269 -0.138667 103.412 0.0262364 105.567C0.19114 107.722 1.12636 109.746 2.66085 111.268L10.732 119.339C12.2543 120.874 14.278 121.809 16.4332 121.974C18.5883 122.139 20.7308 121.522 22.4688 120.237L76.0186 80.9658C77.7806 81.2022 79.5559 81.3248 81.3335 81.3329C92.1189 81.3329 102.463 77.0485 110.089 69.422C117.716 61.7956 122 51.4519 122 40.6665C122 29.8811 117.716 19.5374 110.089 11.9109C102.463 4.28449 92.1189 0 81.3335 0ZM112.963 40.6665C112.971 47.494 110.759 54.1389 106.66 59.599L62.4067 15.3403C67.1076 11.8294 72.6923 9.69518 78.5366 9.17635C84.3809 8.65752 90.2543 9.7745 95.5002 12.4024C100.746 15.0303 105.158 19.0656 108.241 24.057C111.325 29.0484 112.96 34.7992 112.963 40.6665ZM17.1257 112.962L9.03758 104.874L44.135 57.046C48.2477 66.3308 55.6692 73.7523 64.954 77.865L17.1257 112.962ZM49.7041 40.6665C49.6951 33.8406 51.9076 27.1971 56.0074 21.7396L100.255 65.987C95.5542 69.496 89.9705 71.6288 84.1276 72.147C78.2847 72.6652 72.4129 71.5483 67.1682 68.9213C61.9235 66.2943 57.5127 62.2606 54.4286 57.2709C51.3445 52.2813 49.7088 46.5323 49.7041 40.6665ZM48.3768 73.6176C49.2235 74.4649 49.6991 75.6138 49.6991 76.8116C49.6991 78.0095 49.2235 79.1583 48.3768 80.0056L43.8583 84.5241C43.4428 84.9614 42.9441 85.311 42.3914 85.5525C41.8388 85.794 41.2434 85.9223 40.6403 85.9301C40.0372 85.9378 39.4387 85.8247 38.88 85.5975C38.3214 85.3702 37.8138 85.0334 37.3874 84.607C36.9609 84.1805 36.6241 83.673 36.3969 83.1143C36.1697 82.5556 36.0566 81.9571 36.0643 81.3541C36.072 80.751 36.2004 80.1556 36.4419 79.6029C36.6833 79.0503 37.033 78.5515 37.4702 78.1361L41.9887 73.6176C42.4081 73.1963 42.9065 72.8618 43.4554 72.6335C44.0042 72.4051 44.5927 72.2873 45.1872 72.2867C45.7817 72.2862 46.3704 72.403 46.9197 72.6304C47.4689 72.8578 47.9679 73.1914 48.388 73.612L48.3768 73.6176Z" fill="white"/>
</svg>
